<svg id="Ebene_1" data-name="Ebene 1" xmlns="http://www.w3.org/2000/svg" viewBox="0 0 130.76 340.51"><defs><style>.cls-1{fill:#e88710;}</style></defs><path class="cls-1" d="M65.41,340.51c-47.25-40.6-50.7-93.47-43.2-149.43C29.93,133.5,56.77,86.42,102.52,46.87,98.88,80.07,85.32,111,96.31,148c3.91-7.41,7-10.64,7.2-14,1.86-35.15,11.09-68.53,23.36-101.24a59.23,59.23,0,0,0,3.62-12.79C132.06,8.06,126.75,1.58,115,.51a39.11,39.11,0,0,0-8.84.38C78.47,4.74,50.85,8.23,22.92,0,36.43,24.11,59.07,26.64,83.57,25.4,67.75,46.22,51.45,64.34,38.94,84.78,2.19,144.85-10.64,209.68,9.51,278.23,14.76,296.08,26.2,312.57,37,328.18,44.71,339.36,49.5,339.58,65.41,340.51Z"/></svg>