<svg id="Ebene_1" data-name="Ebene 1" xmlns="http://www.w3.org/2000/svg" viewBox="0 0 130.76 340.51"><defs><style>.cls-1{fill:#e88710;}</style></defs><path class="cls-1" d="M65.35,0c47.25,40.59,50.7,93.46,43.2,149.42C100.83,207,74,254.08,28.24,293.63c3.64-33.2,17.2-64.12,6.21-101.07-3.91,7.41-7,10.63-7.2,14C25.39,241.73,16.16,275.1,3.89,307.82A59.07,59.07,0,0,0,.27,320.61C-1.3,332.45,4,338.93,15.81,340a38.55,38.55,0,0,0,8.84-.39c27.64-3.84,55.26-7.33,83.19.9-13.51-24.11-36.15-26.64-60.65-25.4C63,294.29,79.31,276.17,91.82,255.73c36.75-60.08,49.58-124.9,29.43-193.46C116,44.42,104.56,27.93,93.77,12.33,86.05,1.15,81.26.92,65.35,0Z"/></svg>